HIERARCHY
ROOT Hips
{
	OFFSET 0.00000 0.00000 0.00000
	CHANNELS 6 Xposition Yposition Zposition Zrotation Yrotation Xrotation 
	JOINT LHipJoint
	{
		OFFSET 0 0 0
		CHANNELS 3 Zrotation Yrotation Xrotation
		JOINT LeftUpLeg
		{
			OFFSET 3.13874 -1.57224 1.49786
			CHANNELS 3 Zrotation Yrotation Xrotation
			JOINT LeftLeg
			{
				OFFSET 2.10955 -5.79594 0.00000
				CHANNELS 3 Zrotation Yrotation Xrotation
				JOINT LeftFoot
				{
					OFFSET 2.41843 -6.64458 0.00000
					CHANNELS 3 Zrotation Yrotation Xrotation
					JOINT LeftToeBase
					{
						OFFSET 0.04713 -0.12948 1.66229
						CHANNELS 3 Zrotation Yrotation Xrotation
						End Site
						{
							OFFSET 0.00000 -0.00000 0.85167
						}
					}
				}
			}
		}
	}
	JOINT RHipJoint
	{
		OFFSET 0 0 0
		CHANNELS 3 Zrotation Yrotation Xrotation
		JOINT RightUpLeg
		{
			OFFSET -3.13988 -1.57224 1.49786
			CHANNELS 3 Zrotation Yrotation Xrotation
			JOINT RightLeg
			{
				OFFSET -2.15006 -5.90725 0.00000
				CHANNELS 3 Zrotation Yrotation Xrotation
				JOINT RightFoot
				{
					OFFSET -2.34496 -6.44273 0.00000
					CHANNELS 3 Zrotation Yrotation Xrotation
					JOINT RightToeBase
					{
						OFFSET -0.08699 -0.23900 1.55223
						CHANNELS 3 Zrotation Yrotation Xrotation
						End Site
						{
							OFFSET -0.00000 -0.00000 0.80281
						}
					}
				}
			}
		}
	}
	JOINT LowerBack
	{
		OFFSET 0 0 0
		CHANNELS 3 Zrotation Yrotation Xrotation
		JOINT Spine
		{
			OFFSET 0.01292 1.96517 -0.16495
			CHANNELS 3 Zrotation Yrotation Xrotation
			JOINT Spine1
			{
				OFFSET 0.02122 1.88666 0.19706
				CHANNELS 3 Zrotation Yrotation Xrotation
				JOINT Neck
				{
					OFFSET 0 0 0
					CHANNELS 3 Zrotation Yrotation Xrotation
					JOINT Neck1
					{
						OFFSET -0.01683 1.81591 0.07903
						CHANNELS 3 Zrotation Yrotation Xrotation
						JOINT Head
						{
							OFFSET 0.00815 1.74013 -0.47700
							CHANNELS 3 Zrotation Yrotation Xrotation
							End Site
							{
								OFFSET -0.00204 1.83225 -0.16933
							}
						}
					}
				}
				JOINT LeftShoulder
				{
					OFFSET 0 0 0
					CHANNELS 3 Zrotation Yrotation Xrotation
					JOINT LeftArm
					{
						OFFSET 3.38482 1.41533 0.19802
						CHANNELS 3 Zrotation Yrotation Xrotation
						JOINT LeftForeArm
						{
							OFFSET 4.32712 -0.00000 0.00000
							CHANNELS 3 Zrotation Yrotation Xrotation
							JOINT LeftHand
							{
								OFFSET 3.28587 -0.00000 -0.00000
								CHANNELS 3 Zrotation Yrotation Xrotation
								JOINT LeftFingerBase
								{
									OFFSET 0 0 0
									CHANNELS 3 Zrotation Yrotation Xrotation
									JOINT LeftHandIndex1
									{
										OFFSET 0.43316 -0.00000 -0.00000
										CHANNELS 3 Zrotation Yrotation Xrotation
										End Site
										{
											OFFSET 0.34922 -0.00000 -0.00000
										}
									}
								}
								JOINT LThumb
								{
									OFFSET 0 0 0
									CHANNELS 3 Zrotation Yrotation Xrotation
									End Site
									{
										OFFSET 0.35456 -0.00000 0.35456
									}
								}
							}
						}
					}
				}
				JOINT RightShoulder
				{
					OFFSET 0 0 0
					CHANNELS 3 Zrotation Yrotation Xrotation
					JOINT RightArm
					{
						OFFSET -3.09725 1.62858 -0.14144
						CHANNELS 3 Zrotation Yrotation Xrotation
						JOINT RightForeArm
						{
							OFFSET -4.29104 -0.00000 0.00000
							CHANNELS 3 Zrotation Yrotation Xrotation
							JOINT RightHand
							{
								OFFSET -3.22720 -0.00000 -0.00000
								CHANNELS 3 Zrotation Yrotation Xrotation
								JOINT RightFingerBase
								{
									OFFSET 0 0 0
									CHANNELS 3 Zrotation Yrotation Xrotation
									JOINT RightHandIndex1
									{
										OFFSET -0.54362 -0.00000 -0.00000
										CHANNELS 3 Zrotation Yrotation Xrotation
										End Site
										{
											OFFSET -0.43828 -0.00000 -0.00000
										}
									}
								}
								JOINT RThumb
								{
									OFFSET 0 0 0
									CHANNELS 3 Zrotation Yrotation Xrotation
									End Site
									{
										OFFSET -0.44497 -0.00000 0.44497
									}
								}
							}
						}
					}
				}
			}
		}
	}
}
MOTION
Frames: 6
Frame Time: .0083333
37.3842 16.1496 4.2204 -175.7400 9.9763 -166.7320 0.0000 0.0000 0.0000 -28.9578 -21.5251 -8.3333 1.0433 6.4957 18.2297 1.0143 -1.2425 -18.6608 8.4752 -16.4579 -54.2570 0.0000 0.0000 0.0000 35.1690 20.9852 8.2870 -0.3922 4.0214 -11.1369 0.6382 -17.0231 -16.7137 -2.2398 9.3488 -26.8925 5.1764 2.1539 5.1939 -0.4107 4.4318 -10.5476 -4.1847 1.8728 -14.1289 3.8698 0.7667 -16.2230 -5.1109 4.5731 33.6460 -1.7294 2.7793 14.4974 -0.0000 0.0000 0.0000 -77.3929 21.1180 15.7402 14.4738 -23.4080 -3.0138 -0.0000 -0.0000 6.2244 37.4815 24.7240 17.7820 -7.1250 0.0000 -0.0000 9.5242 59.8519 3.4715 -0.0000 0.0000 0.0000 76.3274 -21.7403 42.0967 -20.1677 30.8438 -5.6171 0.0000 -0.0000 -13.3323 -28.7896 -15.2988 8.2500 7.1250 -0.0000 -0.0000 -1.1227 -47.3112 0.0640
37.3777 16.1509 4.2456 -175.7980 10.0175 -166.7220 0.0000 0.0000 0.0000 -28.8995 -21.8881 -8.5663 1.0823 6.6124 18.5722 0.9700 -0.9112 -18.3327 8.7784 -16.6630 -55.3207 0.0000 0.0000 0.0000 35.0358 21.2604 8.0131 -0.3653 3.8827 -10.7469 0.5695 -16.7657 -17.2224 -2.4982 9.8347 -28.4430 5.6362 2.1826 5.3783 -0.5326 4.5100 -10.5076 -4.5976 1.8439 -14.1553 4.1459 0.9139 -16.1865 -5.0611 4.6885 33.6221 -1.7379 2.8709 14.4904 0.0000 0.0000 0.0000 -77.5567 21.0125 15.7266 14.5581 -23.5269 -3.0473 -0.0000 -0.0000 6.5687 37.7173 25.0833 18.1522 -7.1250 0.0000 -0.0000 9.7926 60.3278 3.6817 0.0000 0.0000 0.0000 76.4825 -21.6304 42.2642 -20.0389 30.6892 -5.5512 0.0000 -0.0000 -12.8651 -28.2418 -15.2848 8.0594 7.1250 -0.0000 -0.0000 -0.5968 -47.2134 0.0326
37.3673 16.1535 4.2725 -175.9100 10.1010 -166.8010 0.0000 0.0000 0.0000 -29.0950 -22.0406 -8.3195 1.0325 6.4631 18.1341 0.9890 -0.6430 -18.5951 8.7060 -16.6147 -55.0675 0.0000 0.0000 0.0000 34.8073 21.5429 7.7161 -0.3327 3.7071 -10.2539 0.5485 -16.6872 -17.3727 -1.9387 8.7373 -24.9769 6.1127 2.2801 5.5862 -0.6893 4.6597 -10.3715 -5.0643 1.8446 -14.0650 4.2929 1.0068 -16.2302 -5.0211 4.7357 33.5267 -1.7399 2.9054 14.4623 -0.0000 -0.0000 0.0000 -77.5265 20.8451 16.0511 14.7066 -23.7359 -3.1069 -0.0000 -0.0000 6.7441 37.9972 25.3769 18.5107 -7.1250 0.0000 -0.0000 10.1280 60.7408 3.9089 -0.0000 -0.0000 0.0000 76.4915 -21.4616 42.5352 -20.0034 30.6464 -5.5331 0.0000 -0.0000 -12.7716 -28.2744 -15.2412 8.0481 7.1250 -0.0000 -0.0000 -0.6337 -47.1697 0.0339
37.3546 16.1544 4.2993 -176.0780 10.1967 -166.9280 0.0000 0.0000 0.0000 -29.2051 -21.8935 -8.8788 1.1253 6.7382 18.9419 0.9761 -0.8207 -18.4177 8.7020 -16.6121 -55.0536 0.0000 0.0000 0.0000 34.5590 21.8096 7.4521 -0.3001 3.5225 -9.7371 0.5576 -16.7753 -17.4199 -0.7450 5.5136 -15.3793 6.0946 2.2639 5.9505 -0.5674 4.6561 -10.3150 -4.9428 1.8363 -14.2399 4.0661 1.0061 -16.0805 -5.2017 4.8663 33.3791 -1.7521 2.9092 14.3707 0.0000 -0.0000 0.0000 -77.7970 21.0344 16.3426 14.9011 -24.0081 -3.1856 -0.0000 -0.0000 6.7046 38.1939 25.6466 18.8048 -7.1250 0.0000 -0.0000 10.3622 61.1043 4.0900 0.0000 -0.0000 0.0000 75.9527 -21.4366 43.3186 -20.0364 30.6862 -5.5499 0.0000 -0.0000 -13.1319 -28.7201 -15.1908 8.1707 7.1250 -0.0000 -0.0000 -1.0688 -47.1799 0.0575
37.3407 16.1550 4.3304 -176.3030 10.2235 -167.0600 0.0000 0.0000 0.0000 -29.2852 -21.3078 -9.6578 1.2261 7.0230 19.7834 0.9812 -1.4301 -18.2963 8.7582 -16.6496 -55.2503 0.0000 0.0000 0.0000 34.1974 22.0264 7.0878 -0.2634 3.3015 -9.1193 0.4531 -16.3329 -18.0389 -1.6724 8.1476 -23.1633 6.2230 2.2905 6.3313 -0.6259 4.7022 -10.2376 -5.1104 1.8222 -14.3702 4.1948 1.1233 -16.0437 -5.3430 5.0381 33.2613 -1.8031 2.9772 14.3289 -0.0000 0.0000 0.0000 -77.6528 21.1145 16.9347 15.1086 -24.2972 -3.2705 -0.0000 -0.0000 6.2534 38.2018 25.7540 18.8779 -7.1250 0.0000 -0.0000 10.3640 61.2295 4.1215 -0.0000 0.0000 0.0000 75.9129 -21.3489 43.1353 -19.9353 30.5644 -5.4984 0.0000 -0.0000 -12.6266 -28.6197 -15.0316 8.0549 7.1250 -0.0000 -0.0000 -0.9914 -46.9871 0.0486
37.3227 16.1586 4.3636 -176.5910 10.1869 -167.1270 0.0000 0.0000 0.0000 -29.2670 -20.5621 -10.7846 1.3709 7.4100 20.9359 1.0445 -3.5117 -18.4614 8.5630 -16.5181 -54.5661 0.0000 0.0000 0.0000 33.6366 22.2202 6.5027 -0.2205 3.0226 -8.3416 0.2191 -15.3492 -19.3491 -1.5360 7.8242 -22.1813 6.3044 2.3287 6.6300 -0.6660 4.7552 -10.1485 -5.2260 1.8226 -14.4366 4.3484 1.2778 -16.0797 -5.5645 5.2919 33.1664 -1.8760 3.0729 14.3243 -0.0000 -0.0000 0.0000 -77.5724 21.0802 17.2851 15.2843 -24.5406 -3.3431 -0.0000 -0.0000 5.9456 37.8810 25.7715 18.6875 -7.1250 0.0000 -0.0000 9.9427 61.1612 3.9359 -0.0000 -0.0000 0.0000 75.7366 -21.2506 42.8632 -19.8690 30.4842 -5.4648 0.0000 -0.0000 -12.0075 -28.4115 -14.9044 7.9212 7.1250 -0.0000 -0.0000 -0.8071 -46.8144 0.0361
